<?xml version="1.0" encoding="UTF-8" standalone="no"?>
<svg
   version="1.1"
   id="Layer_1"
   x="0px"
   y="0px"
   viewBox="0 0 122.88 112.88"
   style="enable-background:new 0 0 122.88 112.88"
   xml:space="preserve"
   sodipodi:docname="lightIcon.svg"
   inkscape:version="1.1.2 (b8e25be833, 2022-02-05)"
   xmlns:inkscape="http://www.inkscape.org/namespaces/inkscape"
   xmlns:sodipodi="http://sodipodi.sourceforge.net/DTD/sodipodi-0.dtd"
   xmlns="http://www.w3.org/2000/svg"
   xmlns:svg="http://www.w3.org/2000/svg"><defs
     id="defs11" /><sodipodi:namedview
     id="namedview9"
     pagecolor="#ffffff"
     bordercolor="#666666"
     borderopacity="1.0"
     inkscape:pageshadow="2"
     inkscape:pageopacity="0.0"
     inkscape:pagecheckerboard="0"
     showgrid="false"
     inkscape:zoom="7.6009924"
     inkscape:cx="61.439346"
     inkscape:cy="45.651934"
     inkscape:window-width="1920"
     inkscape:window-height="1051"
     inkscape:window-x="-9"
     inkscape:window-y="-9"
     inkscape:window-maximized="1"
     inkscape:current-layer="Layer_1" /><style
     type="text/css"
     id="style2">.st0{fill-rule:evenodd;clip-rule:evenodd;}</style><g
     id="g6"><path
       class="st0"
       d="M14.29,0h94.3c7.86,0,14.29,6.43,14.29,14.29v84.3c0,7.86-6.43,14.29-14.29,14.29h-94.3 C6.43,112.88,0,106.45,0,98.59v-84.3C0,6.43,6.43,0,14.29,0L14.29,0z M43.01,28.18c-0.64-1.1-0.26-2.51,0.84-3.15 c1.1-0.64,2.51-0.26,3.15,0.84L49.97,31c0.64,1.1,0.26,2.51-0.84,3.15c-1.1,0.64-2.51,0.26-3.15-0.84L43.01,28.18L43.01,28.18 L43.01,28.18z M61.44,35.79c5.7,0,10.86,2.31,14.6,6.05c3.73,3.74,6.05,8.9,6.05,14.6c0,5.7-2.31,10.86-6.05,14.6 c-3.74,3.74-8.9,6.05-14.6,6.05c-5.7,0-10.86-2.31-14.6-6.05c-3.73-3.74-6.05-8.9-6.05-14.6c0-5.7,2.31-10.86,6.05-14.6 C50.58,38.1,55.74,35.79,61.44,35.79L61.44,35.79L61.44,35.79z M59.6,22.76c0-1.28,1.04-2.31,2.31-2.31c1.28,0,2.31,1.03,2.31,2.31 v5.92c0,1.28-1.03,2.31-2.31,2.31c-1.28,0-2.31-1.03-2.31-2.31V22.76L59.6,22.76L59.6,22.76z M76.7,26.36 c0.63-1.1,2.04-1.48,3.14-0.85c1.1,0.63,1.48,2.04,0.85,3.14l-2.96,5.13c-0.63,1.1-2.04,1.48-3.14,0.85 c-1.1-0.63-1.48-2.04-0.85-3.14L76.7,26.36L76.7,26.36L76.7,26.36z M89.69,38.01c1.1-0.64,2.51-0.26,3.15,0.84 c0.64,1.1,0.26,2.51-0.84,3.15l-5.13,2.96c-1.1,0.64-2.51,0.26-3.15-0.84c-0.64-1.1-0.26-2.51,0.84-3.15L89.69,38.01L89.69,38.01 L89.69,38.01z M95.12,54.6c1.28,0,2.31,1.04,2.31,2.31c0,1.28-1.03,2.31-2.31,2.31H89.2c-1.28,0-2.31-1.03-2.31-2.31 c0-1.28,1.03-2.31,2.31-2.31H95.12L95.12,54.6L95.12,54.6z M91.52,71.7c1.1,0.63,1.48,2.04,0.85,3.14 c-0.63,1.1-2.04,1.48-3.14,0.85l-5.13-2.96c-1.1-0.63-1.48-2.04-0.85-3.14c0.63-1.1,2.04-1.48,3.14-0.85L91.52,71.7L91.52,71.7 L91.52,71.7z M79.87,84.69c0.64,1.1,0.26,2.51-0.84,3.15c-1.1,0.64-2.51,0.26-3.15-0.84l-2.96-5.13c-0.64-1.1-0.26-2.51,0.84-3.15 c1.1-0.64,2.51-0.26,3.15,0.84L79.87,84.69L79.87,84.69L79.87,84.69z M63.28,90.12c0,1.28-1.04,2.31-2.31,2.31 c-1.28,0-2.31-1.03-2.31-2.31V84.2c0-1.28,1.03-2.31,2.31-2.31c1.28,0,2.31,1.03,2.31,2.31V90.12L63.28,90.12L63.28,90.12z M46.18,86.52c-0.63,1.1-2.04,1.48-3.14,0.85c-1.1-0.63-1.48-2.04-0.85-3.14l2.96-5.13c0.63-1.1,2.04-1.48,3.14-0.85 c1.1,0.63,1.48,2.04,0.85,3.14L46.18,86.52L46.18,86.52L46.18,86.52z M33.19,74.87c-1.1,0.64-2.51,0.26-3.15-0.84 c-0.64-1.1-0.26-2.51,0.84-3.15L36,67.91c1.1-0.64,2.51-0.26,3.15,0.84c0.64,1.1,0.26,2.51-0.84,3.15L33.19,74.87L33.19,74.87 L33.19,74.87z M27.76,58.28c-1.28,0-2.31-1.04-2.31-2.31s1.03-2.31,2.31-2.31h5.92c1.28,0,2.31,1.03,2.31,2.31 s-1.03,2.31-2.31,2.31H27.76L27.76,58.28L27.76,58.28z M31.36,41.18c-1.1-0.63-1.48-2.04-0.85-3.14c0.63-1.1,2.04-1.48,3.14-0.85 l5.13,2.96c1.1,0.63,1.48,2.04,0.85,3.14c-0.63,1.1-2.04,1.48-3.14,0.85L31.36,41.18L31.36,41.18L31.36,41.18z"
       id="path4" /></g><path
     style="fill:#b3b3b3;stroke-width:0.497241;stroke-linejoin:round;stroke-dashoffset:316.157"
     d="M 12.003019,112.61782 C 9.0948818,112.0888 6.5638524,110.8056 4.4944639,108.81108 2.3003045,106.69629 0.91650836,104.16824 0.30327347,101.15421 0.07715386,100.04284 0.06578088,97.901579 0.06578088,56.439999 c 0,-41.461581 0.01137298,-43.602844 0.23749259,-44.714215 C 0.91650836,8.7117528 2.3003045,6.1837031 4.4944639,4.0689208 6.2268735,2.3991838 8.4363591,1.1567235 10.853846,0.49284845 L 12.169464,0.13156177 60.781537,0.09294636 c 35.386096,-0.02810925 48.895033,0.0015077 49.652113,0.10885699 3.27928,0.46498792 6.16662,1.96642605 8.47305,4.40604625 1.84343,1.9498882 3.01598,4.1823555 3.62604,6.9038054 l 0.28017,1.249837 v 43.612726 c 0,41.524996 -0.0114,43.668602 -0.23749,44.779992 -0.61324,3.01403 -1.99703,5.54208 -4.19119,7.65687 -1.73241,1.66973 -3.9419,2.91219 -6.35938,3.57607 l -1.31562,0.36129 -48.875199,0.0216 c -40.014666,0.0177 -49.048476,-0.01 -49.831012,-0.15224 z M 62.341617,92.063314 c 0.191161,-0.141567 0.480772,-0.453114 0.64358,-0.692328 0.28982,-0.425834 0.296014,-0.51312 0.296014,-4.171522 0,-3.991015 -0.01997,-4.130203 -0.6782,-4.726686 -0.504416,-0.457099 -0.878887,-0.594372 -1.621403,-0.594372 -1.133482,0 -2.006311,0.64545 -2.299269,1.700292 -0.177427,0.638854 -0.177427,6.523093 0,7.161947 0.149642,0.538814 0.656015,1.208106 1.093785,1.445698 0.726024,0.394038 1.946305,0.335519 2.565493,-0.123029 z m 16.540004,-4.100633 c 0.924619,-0.419941 1.466548,-1.401872 1.331085,-2.411819 -0.06224,-0.464034 -2.266947,-4.530403 -3.351441,-6.18141 -0.624254,-0.950347 -1.928219,-1.274972 -3.012658,-0.750003 -0.973633,0.471327 -1.502408,1.595339 -1.228696,2.611827 0.156749,0.582125 3.119612,5.794539 3.560549,6.263896 0.677947,0.721642 1.737749,0.905069 2.701161,0.467509 z m -33.65073,-0.461605 c 0.601205,-0.312806 0.907341,-0.740473 2.563521,-3.581191 l 1.601118,-2.746274 0.003,-0.931173 c 0.0026,-0.819752 -0.04115,-0.988999 -0.365639,-1.414427 -0.489665,-0.641985 -1.019913,-0.896458 -1.867954,-0.896458 -0.794218,0 -1.340064,0.235756 -1.793303,0.774545 -0.171428,0.203784 -1.017558,1.600904 -1.88029,3.104713 -1.341459,2.338265 -1.576346,2.833017 -1.622063,3.41661 -0.07005,0.894254 0.35962,1.741532 1.095549,2.160319 0.605538,0.344588 1.715,0.400076 2.266104,0.113336 z M 63.64819,77.021985 c 9.221058,-1.003224 16.629103,-7.939149 18.182127,-17.023368 0.360073,-2.106203 0.360073,-5.011034 0,-7.117237 -1.1017,-6.444259 -5.248506,-12.024476 -11.115867,-14.958245 -6.594016,-3.297108 -14.643116,-2.81093 -20.720978,1.251576 -4.477194,2.992604 -7.518006,7.40091 -8.772776,12.718009 -0.490005,2.076405 -0.576209,5.745142 -0.188367,8.016735 1.844556,10.803604 11.745427,18.2952 22.615861,17.11253 z m 27.897651,-1.273864 c 1.289668,-0.607697 1.579273,-2.66634 0.517048,-3.675423 -0.669991,-0.636473 -5.86417,-3.56777 -6.501354,-3.668993 -2.221056,-0.352834 -3.603782,2.526421 -1.937344,4.03414 0.496452,0.449168 5.657773,3.421294 6.166716,3.551079 0.490369,0.125049 1.179062,0.03055 1.754934,-0.240803 z M 35.653239,73.549065 c 2.77853,-1.606809 3.311076,-1.987965 3.629695,-2.597848 0.287203,-0.549751 0.232075,-1.658907 -0.113124,-2.275974 -0.563591,-1.007463 -2.035118,-1.409579 -3.124506,-0.853815 -1.130551,0.576764 -5.344102,3.071272 -5.634145,3.335528 -0.483896,0.440873 -0.696994,0.969271 -0.696994,1.728264 0,0.75676 0.210641,1.281138 0.697061,1.73529 0.473115,0.441731 0.893888,0.567869 1.755626,0.526303 0.740571,-0.03572 0.956104,-0.134499 3.486387,-1.597748 z M 96.077207,59.087437 c 1.219353,-0.521726 1.764359,-2.02952 1.160939,-3.211817 -0.636607,-1.247322 -0.999394,-1.343267 -5.079127,-1.343267 -4.079733,0 -4.44252,0.09595 -5.079128,1.343267 -0.596286,1.16832 -0.06533,2.671924 1.132275,3.206486 0.576901,0.257505 7.265077,0.262038 7.865041,0.0053 z M 34.567265,58.145284 c 0.624958,-0.261124 0.923822,-0.537994 1.231535,-1.140906 0.445108,-0.872113 0.291972,-1.929535 -0.384164,-2.65268 -0.65724,-0.702939 -0.894052,-0.740277 -4.694963,-0.740277 -3.800912,0 -4.037723,0.03734 -4.694963,0.740277 -0.676136,0.723145 -0.829272,1.780567 -0.384165,2.65268 0.302391,0.592481 0.600681,0.874137 1.20197,1.134942 0.677555,0.293883 7.023935,0.298784 7.72475,0.006 z M 89.021211,43.815251 c 3.723318,-2.135716 3.946718,-2.315808 4.116665,-3.318596 0.265024,-1.563797 -0.603408,-2.681107 -2.160984,-2.780286 l -0.850388,-0.05415 -3.042637,1.757693 c -2.718162,1.570249 -3.077892,1.817851 -3.37322,2.321793 -0.280756,0.479072 -0.32268,0.688227 -0.278148,1.387608 0.06325,0.993382 0.385587,1.512971 1.193324,1.923602 1.047206,0.532368 1.562591,0.387244 4.395388,-1.237664 z m -50.507093,0.516047 c 0.652397,-0.272588 0.945791,-0.553091 1.233227,-1.179038 0.447167,-0.973793 0.254449,-2.033666 -0.492844,-2.710439 -0.2079,-0.18828 -1.643241,-1.069813 -3.189648,-1.958963 -2.572797,-1.479299 -2.868971,-1.617219 -3.486387,-1.623512 -1.676456,-0.01709 -2.770623,1.391757 -2.322881,2.990932 0.09137,0.326338 0.3432,0.751086 0.576307,0.972024 0.444065,0.420878 5.554307,3.412675 6.123663,3.585103 0.546057,0.165373 1.038129,0.141345 1.558563,-0.07611 z m 38.401387,-9.654063 c 0.569077,-0.347006 0.845044,-0.750878 2.550674,-3.73288 1.269056,-2.218728 1.497303,-2.705242 1.543047,-3.289044 0.0703,-0.897158 -0.358361,-1.743679 -1.095321,-2.163054 -0.671856,-0.382327 -1.788666,-0.403838 -2.375894,-0.04576 -0.565216,0.344651 -0.841317,0.742874 -2.561471,3.694439 l -1.495132,2.565454 -0.0021,0.920933 c -0.0023,1.035026 0.277504,1.589368 1.035753,2.051736 0.561846,0.342602 1.83717,0.341637 2.400425,-0.0018 z M 49.039683,34.255902 c 0.821971,-0.397909 1.256026,-1.103382 1.269058,-2.06261 0.0099,-0.729819 -0.03871,-0.837328 -1.619216,-3.579801 -1.744872,-3.027681 -2.170116,-3.592934 -2.878992,-3.826884 -1.907364,-0.629488 -3.758567,1.278583 -3.000565,3.092738 0.371484,0.889089 3.231896,5.680903 3.603878,6.037285 0.684887,0.656162 1.700231,0.78735 2.625837,0.339272 z m 14.062885,-3.510229 c 0.436714,-0.234968 0.943914,-0.904738 1.093785,-1.444374 0.177427,-0.638854 0.177427,-6.523093 0,-7.161946 -0.292704,-1.053927 -1.192621,-1.719525 -2.311279,-1.709473 -0.726647,0.0065 -1.108661,0.149792 -1.609393,0.603552 -0.658229,0.596483 -0.6782,0.735671 -0.6782,4.726686 0,3.658402 0.0062,3.745688 0.296014,4.171522 0.162808,0.239214 0.454987,0.552679 0.649288,0.69659 0.61756,0.457402 1.824971,0.512798 2.559785,0.117443 z"
     id="path865" /><path
     style="fill:#000000;stroke-width:0.497241;stroke-linejoin:round;stroke-dashoffset:316.157"
     d="m 59.5317,76.938201 c -1.164419,-0.103956 -3.436654,-0.601203 -4.681137,-1.0244 -5.060928,-1.721018 -9.418206,-5.533708 -11.848779,-10.367877 -0.62482,-1.242705 -1.448422,-3.657262 -1.782192,-5.224853 -0.367073,-1.724011 -0.33526,-6.304386 0.05591,-8.049312 1.04442,-4.658961 3.456025,-8.66062 6.995095,-11.6072 7.687446,-6.400459 18.650056,-6.400459 26.337502,0 3.547698,2.953764 5.988816,7.039229 7.028427,11.762806 0.291329,1.323683 0.410122,5.285446 0.201965,6.735562 C 80.263729,70.13337 70.49574,77.917042 59.5317,76.938201 Z"
     id="path1313" /><path
     style="fill:#000000;stroke-width:0.497241;stroke-linejoin:round;stroke-dashoffset:316.157"
     d="m 26.901936,58.032742 c -0.555435,-0.242018 -1.218027,-1.039306 -1.321325,-1.58993 -0.191524,-1.020915 0.399513,-2.124786 1.35038,-2.522084 0.609469,-0.254652 6.967895,-0.254652 7.577364,0 0.950867,0.397298 1.541904,1.501169 1.350379,2.522084 -0.10604,0.565245 -0.774306,1.354826 -1.350379,1.595525 -0.599415,0.250451 -7.029645,0.245722 -7.606419,-0.0056 z"
     id="path1352" /><path
     style="fill:#000000;stroke-width:0.497241;stroke-linejoin:round;stroke-dashoffset:316.157"
     d="m 36.968857,44.254898 c -0.723426,-0.287079 -5.718921,-3.231593 -6.0674,-3.57633 -1.345168,-1.330728 -0.318891,-3.694531 1.604032,-3.694531 0.55276,0 0.91444,0.167521 3.23357,1.4977 3.461019,1.985131 3.544557,2.043343 3.856218,2.687149 0.5887,1.216091 0.145749,2.403391 -1.11346,2.984553 -0.582726,0.268946 -1.017441,0.298098 -1.51296,0.101459 z"
     id="path1391" /><path
     style="fill:#000000;stroke-width:0.497241;stroke-linejoin:round;stroke-dashoffset:316.157"
     d="m 47.00761,34.129973 c -0.629615,-0.311656 -0.725682,-0.449575 -2.74199,-3.936547 -0.821588,-1.420842 -1.43468,-2.632857 -1.472976,-2.91191 -0.192461,-1.402436 1.217605,-2.711788 2.618619,-2.431585 0.915759,0.183151 1.180413,0.496245 2.871041,3.39653 0.898372,1.541164 1.714516,3.045815 1.813654,3.343669 0.332108,0.997804 -0.187991,2.099423 -1.21042,2.563788 -0.699842,0.317852 -1.200314,0.311471 -1.877928,-0.02394 z"
     id="path1430" /><path
     style="fill:#000000;stroke-width:0.497241;stroke-linejoin:round;stroke-dashoffset:316.157"
     d="m 61.26242,30.792417 c -0.57871,-0.208081 -1.080639,-0.636708 -1.348535,-1.151595 -0.275323,-0.529163 -0.2686,-7.32376 0.0078,-7.858212 0.265347,-0.513124 0.905772,-1.02561 1.479667,-1.18407 1.092227,-0.301578 2.365305,0.482811 2.655759,1.636308 0.189024,0.750681 0.191345,6.211054 0.003,6.959204 -0.311419,1.236755 -1.660184,2.007343 -2.797625,1.598365 z"
     id="path1469" /><path
     style="fill:#000000;stroke-width:0.497241;stroke-linejoin:round;stroke-dashoffset:316.157"
     d="M 75.269488,34.794549 C 74.748747,34.67543 74.259266,34.334392 73.880062,33.826488 73.67459,33.551281 73.608809,33.26611 73.608809,32.650562 c 0,-0.803296 0.01961,-0.846335 1.710303,-3.753385 1.520146,-2.613807 1.7731,-2.977596 2.275106,-3.271976 1.523488,-0.893382 3.46097,0.321295 3.284005,2.05886 -0.0472,0.463431 -0.401411,1.191315 -1.541253,3.167174 -1.877541,3.25462 -1.946512,3.355481 -2.502638,3.659765 -0.60742,0.332349 -1.022621,0.407583 -1.564844,0.283549 z"
     id="path1508" /><path
     style="fill:#000000;stroke-width:0.497241;stroke-linejoin:round;stroke-dashoffset:316.157"
     d="m 84.692566,44.919221 c -0.271524,-0.14334 -0.648731,-0.494916 -0.838239,-0.781281 -0.296915,-0.44867 -0.336883,-0.626768 -0.289053,-1.288022 0.03706,-0.5124 0.152205,-0.903161 0.346544,-1.176084 0.196523,-0.275991 1.261724,-0.967473 3.280067,-2.129275 2.700764,-1.554618 3.050154,-1.720551 3.622821,-1.720551 2.033647,0 2.999351,2.395792 1.521265,3.774069 -0.290127,0.270536 -4.390095,2.695346 -5.598634,3.311154 -0.68389,0.348474 -1.396992,0.351958 -2.044771,0.01 z"
     id="path1547" /><path
     style="fill:#000000;stroke-width:0.497241;stroke-linejoin:round;stroke-dashoffset:316.157"
     d="m 88.341281,58.953675 c -0.555434,-0.242019 -1.218026,-1.039306 -1.321324,-1.589931 -0.191524,-1.020915 0.399513,-2.124786 1.35038,-2.522083 0.609469,-0.254653 6.967895,-0.254653 7.577364,0 0.950867,0.397297 1.541904,1.501168 1.350379,2.522083 -0.10604,0.565245 -0.774306,1.354826 -1.350379,1.595525 -0.599415,0.250452 -7.029646,0.245722 -7.60642,-0.0056 z"
     id="path1586" /><path
     style="fill:#000000;stroke-width:0.497241;stroke-linejoin:round;stroke-dashoffset:316.157"
     d="m 89.725126,75.801981 c -0.253256,-0.09459 -1.259704,-0.634962 -2.23655,-1.200832 -3.828713,-2.217906 -3.905148,-2.270293 -4.199432,-2.878203 -0.643171,-1.328613 -0.0065,-2.696642 1.459294,-3.135816 0.443051,-0.132741 0.631985,-0.126715 1.079456,0.03443 0.798896,0.287704 5.71702,3.150431 6.150161,3.579868 0.455763,0.451866 0.704358,1.228036 0.589468,1.840454 -0.248563,1.324955 -1.662767,2.200673 -2.842397,1.760098 z"
     id="path1625" /><path
     style="fill:#000000;stroke-width:0.497241;stroke-linejoin:round;stroke-dashoffset:316.157"
     d="m 77.029415,87.894134 c -0.217077,-0.09689 -0.55063,-0.346189 -0.74123,-0.553988 -0.455331,-0.49642 -3.398809,-5.6142 -3.555609,-6.182083 -0.380615,-1.378474 1.102836,-2.902711 2.559143,-2.629506 0.902444,0.169299 1.258817,0.564889 2.619879,2.908178 2.297828,3.956085 2.4296,4.296093 2.02838,5.233806 -0.488489,1.141672 -1.830312,1.705771 -2.910563,1.223593 z"
     id="path1664" /><path
     style="fill:#000000;stroke-width:0.497241;stroke-linejoin:round;stroke-dashoffset:316.157"
     d="m 60.352715,92.234099 c -0.863855,-0.308256 -1.326991,-0.794862 -1.535591,-1.613408 -0.186994,-0.73376 -0.183467,-6.200087 0.0045,-6.946497 0.290454,-1.153497 1.563532,-1.937886 2.655759,-1.636308 0.573895,0.15846 1.214319,0.670946 1.479666,1.18407 0.282536,0.546364 0.282536,7.329067 0,7.875431 -0.266527,0.515408 -0.906242,1.025589 -1.48888,1.187404 -0.586607,0.162917 -0.506639,0.166551 -1.115436,-0.05069 z"
     id="path1703" /><path
     style="fill:#000000;stroke-width:0.497241;stroke-linejoin:round;stroke-dashoffset:316.157"
     d="m 43.415384,87.459431 c -0.468087,-0.175887 -0.946216,-0.622924 -1.201544,-1.123409 -0.484843,-0.95037 -0.342731,-1.411336 1.327882,-4.307259 1.892891,-3.281231 1.941229,-3.351123 2.557046,-3.697231 1.610778,-0.905308 3.497633,0.460777 3.196816,2.314497 -0.03967,0.244435 -0.831313,1.756883 -1.759214,3.360995 -1.470411,2.541976 -1.756167,2.957074 -2.2249,3.23195 -0.51992,0.304895 -1.399277,0.407137 -1.896086,0.220457 z"
     id="path1742" /><path
     style="fill:#000000;stroke-width:0.497241;stroke-linejoin:round;stroke-dashoffset:316.157"
     d="M 30.915678,74.759975 C 29.665587,73.90917 29.456811,72.46765 30.433273,71.42914 c 0.229879,-0.244486 1.66122,-1.166183 3.180759,-2.048216 3.047782,-1.769119 3.534273,-1.931736 4.462009,-1.491497 1.141693,0.541769 1.600258,1.988033 0.980193,3.091422 -0.32443,0.577313 -0.58168,0.747437 -4.84675,3.205247 -1.32373,0.76282 -1.592578,0.869893 -2.184203,0.869893 -0.483079,0 -0.79818,-0.08406 -1.109603,-0.296014 z"
     id="path1781" /><path
     style="fill:#ffffff;stroke-width:0.497241;stroke-linejoin:round;stroke-dashoffset:316.157"
     d="m 61.307784,112.67889 -49.401444,-0.0695 -1.011718,-0.29332 C 5.7131186,110.81382 1.9656561,107.05298 0.55447001,101.93895 l -0.35712736,-1.2942 V 56.439999 12.235244 l 0.35712736,-1.2942 C 1.9268198,5.9677584 5.5281329,2.2437616 10.431996,0.72702596 c 0.73853,-0.228423 1.421353,-0.45584822 1.517385,-0.50538937 0.09603,-0.0495412 22.415484,-0.0604734 49.598786,-0.0242939 l 49.424183,0.0657809 1.0525,0.30618202 c 1.6085,0.46793209 2.78754,1.00065519 4.08293,1.84478279 3.1691,2.0651125 5.2719,5.0064394 6.24816,8.7397116 l 0.40039,1.531137 -0.0394,43.979909 -0.0394,43.979904 -0.35324,1.28633 c -0.40833,1.48692 -1.27003,3.3796 -2.08714,4.5843 -0.83708,1.23413 -2.6582,3.00609 -3.95473,3.84797 -1.26439,0.82101 -2.77377,1.50823 -4.22026,1.92146 -0.52706,0.15057 -1.04709,0.31648 -1.15563,0.36869 -0.10854,0.0522 -22.427992,0.0636 -49.598786,0.0254 z m 0.937733,-20.462779 c 0.203686,-0.105329 0.520044,-0.41182 0.703016,-0.681087 l 0.332678,-0.48958 v -3.788976 c 0,-2.977085 -0.04007,-3.88487 -0.186987,-4.236497 -0.223549,-0.53503 -1.135855,-1.185974 -1.521,-1.085255 -0.145992,0.03818 -0.26544,0.01575 -0.26544,-0.04983 0,-0.06558 -0.118406,-0.119245 -0.263123,-0.119245 -0.144718,0 -0.263298,0.0444 -0.263511,0.09867 -2.63e-4,0.05427 -0.197984,0.10272 -0.439491,0.107668 -0.591344,0.01212 -1.247863,0.505589 -1.54599,1.162044 -0.218784,0.481748 -0.245212,0.910176 -0.247793,4.017003 -0.0027,3.226666 0.01635,3.517475 0.263554,4.028137 0.327056,0.675607 0.619779,0.949849 1.270698,1.19047 0.577089,0.213329 1.593454,0.141204 2.163389,-0.153522 z m 16.783428,-4.279705 c 0.741384,-0.358897 1.223734,-1.150544 1.223734,-2.008422 0,-0.501519 -0.156875,-0.917962 -0.840864,-2.232175 -1.125212,-2.161977 -2.48235,-4.42945 -2.862665,-4.782875 -0.42321,-0.393287 -0.935809,-0.567939 -1.666178,-0.567697 -1.249636,3.95e-4 -2.260921,0.915334 -2.362243,2.137146 -0.06352,0.766013 0.0968,1.127024 1.913699,4.309177 1.261109,2.208732 1.795918,2.956019 2.28965,3.19932 0.614055,0.302593 1.61619,0.278908 2.304867,-0.05447 z m -33.637621,-0.44913 c 0.467002,-0.241496 1.000916,-1.019362 2.740145,-3.992154 1.321825,-2.259339 1.335756,-2.292062 1.335756,-3.137599 0,-1.617469 -0.780942,-2.458112 -2.280298,-2.454623 -1.431428,0.0033 -1.613615,0.178319 -3.405273,3.270711 -1.169423,2.018421 -1.610713,2.845835 -1.61383,3.025921 -0.0013,0.07236 -0.08251,0.216024 -0.180576,0.319257 -0.272971,0.28736 -0.142649,1.754035 0.19654,2.21189 0.512618,0.691958 1.058666,0.95524 1.981174,0.95524 0.493783,0 1.001153,-0.08218 1.226362,-0.198643 z M 65.620617,76.787005 c 4.18409,-0.908053 7.470038,-2.703488 10.493963,-5.733882 4.457514,-4.467051 6.343854,-9.640191 5.954556,-16.329912 C 81.78247,49.797113 79.53969,45.07962 75.748284,41.42784 72.95264,38.735153 69.557102,36.947083 65.602981,36.085389 c -1.146246,-0.249793 -1.73509,-0.290941 -4.163635,-0.290941 -2.428545,0 -3.017389,0.04115 -4.163635,0.290941 -7.522933,1.639422 -13.311195,6.856935 -15.629049,14.08795 -0.731706,2.282706 -0.896721,3.667738 -0.824992,6.924468 0.05612,2.548257 0.09214,2.883065 0.463827,4.311559 1.058265,4.067214 2.903633,7.223473 5.909261,10.10701 2.954817,2.834789 6.517572,4.622629 10.758201,5.398615 1.806522,0.330572 5.867029,0.262796 7.667658,-0.127986 z m 26.018799,-1.026696 c 1.007076,-0.522625 1.422824,-2.078238 0.853616,-3.193981 -0.288882,-0.566255 -1.114344,-1.155487 -3.557277,-2.53926 -2.096282,-1.187417 -2.883043,-1.57169 -3.030853,-1.480338 -0.06965,0.04304 -0.126629,0.01557 -0.126629,-0.06106 0,-0.206639 -1.139124,-0.169318 -1.565746,0.0513 -0.479524,0.247972 -1.170589,1.039537 -1.276718,1.462389 -0.146823,0.584987 0.01598,1.703508 0.306899,2.108554 0.314172,0.437421 2.037797,1.537711 4.70705,3.004785 1.726378,0.948853 1.882893,1.008813 2.510821,0.961893 0.36832,-0.02752 0.898797,-0.168945 1.178837,-0.314273 z M 33.617743,74.746866 c 1.021275,-0.490678 3.537545,-1.959128 4.698322,-2.741855 0.934389,-0.630072 1.152466,-1.031179 1.152466,-2.119723 0,-1.427436 -0.738957,-2.213349 -2.166578,-2.304253 -0.804032,-0.0512 -0.906178,-0.02262 -1.96473,0.549732 -2.42017,1.308562 -5.017718,2.954419 -5.292788,3.353615 -0.51425,0.746302 -0.509001,2.063049 0.01139,2.857267 0.637437,0.972852 2.046764,1.133181 3.561916,0.405217 z M 96.252982,59.068888 c 0.225628,-0.09189 0.578491,-0.387677 0.784141,-0.657297 0.702618,-0.921181 0.555463,-2.618995 -0.292333,-3.372805 -0.471299,-0.419052 -1.251515,-0.504966 -4.585771,-0.504966 -3.334257,0 -4.114472,0.08591 -4.585771,0.504966 -0.840202,0.747059 -0.994749,2.45189 -0.304328,3.35708 0.199052,0.260969 0.492712,0.549206 0.65258,0.640523 0.594077,0.339339 7.511825,0.366325 8.331482,0.0325 z M 34.217085,58.268072 c 1.209751,-0.173779 1.893887,-1.121988 1.805948,-2.503038 -0.04341,-0.681683 -0.123726,-0.91636 -0.453984,-1.32646 -0.220687,-0.274036 -0.60284,-0.568911 -0.849229,-0.655276 -0.304468,-0.106721 -1.585931,-0.157027 -4.000147,-0.157027 -2.414216,0 -3.695679,0.05031 -4.000147,0.157027 -0.246389,0.08637 -0.629462,0.382375 -0.851271,0.6578 -0.344346,0.427581 -0.409424,0.629482 -0.44526,1.381398 -0.03469,0.727888 0.01029,0.970628 0.259315,1.399541 0.484034,0.833672 0.980387,1.040718 2.732872,1.139978 1.527549,0.08652 4.929025,0.03144 5.801903,-0.09394 z M 87.81748,44.553038 c 1.785965,-0.939853 4.355859,-2.496976 4.789332,-2.901899 0.461493,-0.4311 0.723317,-1.305919 0.612338,-2.045978 -0.177453,-1.183345 -0.935675,-1.811703 -2.355303,-1.951897 l -0.768925,-0.07594 -2.717462,1.584761 c -3.107582,1.812267 -3.497664,2.082217 -3.770094,2.609041 -0.314766,0.608688 -0.260889,1.972238 0.09881,2.500744 0.597975,0.878606 1.428578,1.231134 2.401002,1.019043 0.289436,-0.06313 1.059073,-0.395172 1.710303,-0.737878 z M 38.815735,44.237645 c 0.734616,-0.370445 1.179043,-1.166909 1.179043,-2.112982 0,-0.923821 -0.312498,-1.472383 -1.169852,-2.053576 -1.114138,-0.755264 -4.817026,-2.858316 -5.475414,-3.109755 -1.547387,-0.590954 -3.221867,0.519804 -3.221867,2.13721 0,1.091757 0.330394,1.600929 1.540219,2.373639 1.193065,0.762005 4.652299,2.757159 5.076537,2.927953 0.540407,0.217561 1.46086,0.145355 2.071334,-0.162489 z m 38.378626,-9.658669 c 0.382374,-0.285483 2.27856,-3.366124 3.253408,-5.285651 0.578377,-1.138855 0.620027,-1.286153 0.567807,-2.008085 -0.09804,-1.355394 -0.907936,-2.091161 -2.301846,-2.091161 -1.472444,0 -1.583124,0.116986 -3.969107,4.195231 l -1.338354,2.287585 0.05256,1.024706 c 0.04037,0.787104 0.119641,1.11892 0.341875,1.43102 0.336774,0.472955 0.987135,0.846234 1.321875,0.758698 0.128255,-0.03354 0.301444,-0.0188 0.384862,0.03276 0.246437,0.152305 1.312926,-0.06587 1.686925,-0.345101 z M 48.980149,34.357219 c 1.05504,-0.440824 1.626301,-1.732346 1.278988,-2.891571 -0.175749,-0.5866 -1.870625,-3.617382 -2.919275,-5.220258 -0.833076,-1.273367 -1.269601,-1.577558 -2.263856,-1.577558 -0.827425,0 -1.139383,0.117262 -1.705259,0.640993 -0.538129,0.498053 -0.745133,0.968983 -0.741845,1.687695 0.0035,0.758873 0.210131,1.234594 1.455897,3.351437 1.699062,2.887099 2.282819,3.723486 2.764364,3.960687 0.542637,0.267294 1.552429,0.290312 2.130986,0.04857 z m 14.201218,-3.588167 c 0.200249,-0.103554 0.526644,-0.433762 0.725324,-0.733796 l 0.361233,-0.545517 0.03884,-3.595472 c 0.036,-3.332004 0.01998,-3.638119 -0.218606,-4.177476 -0.379728,-0.858438 -1.114683,-1.303079 -2.174014,-1.315258 -0.691376,-0.0079 -0.912301,0.04974 -1.382767,0.361056 -0.906967,0.600161 -0.933898,0.746229 -0.933898,5.065333 V 29.6277 l 0.379345,0.523672 c 0.350181,0.483408 0.724462,0.719068 1.396739,0.87943 0.398231,0.09499 1.397811,-0.04974 1.807802,-0.26175 z"
     id="path1820" /><path
     style="fill:#e5d5ff;stroke-width:0.497241;stroke-linejoin:round;stroke-dashoffset:316.157"
     d="m 36.179486,112.55603 -24.667831,-0.0707 -1.21333,-0.42385 C 7.9125821,111.22806 6.0786532,110.093 4.3844478,108.40127 2.7277253,106.74697 1.6468102,104.95986 0.7587786,102.40686 L 0.32890442,101.171 0.29429228,56.703122 0.25968013,12.235244 0.6597772,10.875217 C 2.1044428,5.964447 5.241742,2.6829557 10.220276,0.87531243 l 1.686064,-0.61218889 49.596324,0.0431413 49.596326,0.0431413 1.2523,0.39839256 c 5.29017,1.6829574 8.82773,5.6313402 10.17432,11.3558843 0.15883,0.675187 0.17346,7.174126 0.10111,44.928344 l -0.0846,44.138973 -0.41707,1.20835 c -0.97613,2.82808 -2.37066,4.9799 -4.34094,6.69828 -1.66405,1.4513 -3.33118,2.37441 -5.7014,3.15694 l -1.11039,0.3666 -25.062515,0.0128 c -13.784385,0.007 -36.163041,-0.019 -49.730349,-0.0579 z M 61.853968,92.418801 c 0.28202,-0.07833 0.678088,-0.352248 0.959112,-0.663307 l 0.478707,-0.529872 -0.03818,-4.135944 -0.03818,-4.135943 -0.476495,-0.476322 c -1.038909,-1.038531 -2.938945,-0.849666 -3.852947,0.382987 -0.261897,0.353203 -0.27708,0.5539 -0.31366,4.145899 -0.03804,3.735839 -0.03527,3.780812 0.268881,4.365053 0.516586,0.992302 1.71333,1.408375 3.012759,1.047449 z m 17.536854,-4.653066 c 0.59839,-0.456416 0.861857,-1.038006 0.861857,-1.902509 0,-0.532385 -0.141174,-0.923016 -0.796428,-2.203736 -1.169785,-2.286385 -2.633488,-4.642784 -3.084064,-4.964996 -0.604759,-0.432471 -2.060711,-0.461907 -2.760696,-0.05581 -0.704306,0.4086 -1.116026,1.159195 -1.118792,2.03964 -0.0018,0.571711 0.106884,0.896601 0.639496,1.911696 1.61729,3.08236 3.046737,5.254775 3.61883,5.499755 0.153115,0.06557 0.698311,0.104446 1.211547,0.0864 0.796515,-0.02801 1.005655,-0.08811 1.42825,-0.410435 z M 45.571807,87.410574 c 0.468894,-0.368832 1.208166,-1.472901 2.674658,-3.994479 l 1.22076,-2.099055 v -0.974734 c 0,-1.603989 -0.597247,-2.336827 -2.024515,-2.484134 -0.929252,-0.09591 -1.558263,0.129752 -2.088553,0.749277 -0.533342,0.623091 -1.893135,2.889191 -2.838413,4.730228 -0.676477,1.317518 -0.703802,1.410665 -0.656969,2.239495 0.08495,1.503456 0.773007,2.100458 2.426908,2.105751 0.753685,0.0024 1.004287,-0.05066 1.286124,-0.272349 z M 65.761158,76.832098 c 3.831965,-0.846948 7.0933,-2.601909 9.96425,-5.361876 3.258688,-3.132716 5.181259,-6.467524 5.975471,-10.36479 0.587733,-2.884052 0.610355,-6.476917 0.05763,-9.152824 -1.162085,-5.626012 -5.175389,-10.953351 -10.42049,-13.832363 -1.343219,-0.737288 -3.310336,-1.493187 -5.09667,-1.958487 -1.41158,-0.367685 -1.529705,-0.376893 -4.802004,-0.37434 -3.643099,0.0028 -3.890355,0.03622 -6.446527,0.870206 -4.350774,1.419503 -8.24519,4.32801 -10.774986,8.047194 -1.21657,1.788541 -2.317282,4.229769 -2.946071,6.533985 l -0.414096,1.517466 -0.0024,3.68373 c -0.0027,4.052155 0.02397,4.238943 0.997104,6.996457 1.743579,4.940654 5.43214,9.150286 10.108577,11.536577 1.841873,0.939869 4.28543,1.739182 6.272869,2.051917 1.220607,0.19207 6.384363,0.05977 7.527354,-0.192852 z m 25.753067,-0.974297 c 0.824436,-0.374414 1.16105,-0.945074 1.209858,-2.051069 0.06195,-1.403676 -0.198777,-1.72202 -2.580637,-3.150979 -2.748909,-1.649166 -3.927842,-2.204729 -4.832679,-2.277361 -0.752285,-0.06039 -0.903631,-0.03028 -1.357441,0.27004 -0.280918,0.185901 -0.642802,0.551654 -0.804189,0.812785 -0.250231,0.404882 -0.286198,0.618019 -0.244301,1.447709 0.0409,0.809839 0.102772,1.030028 0.369132,1.313555 0.451231,0.480314 2.383463,1.706937 4.541703,2.883175 2.051736,1.118192 2.632486,1.236295 3.698554,0.752145 z M 33.022004,75.029759 c 1.12208,-0.32507 5.410096,-2.880912 6.043253,-3.602037 0.367808,-0.418911 0.403274,-0.540263 0.403274,-1.379883 0,-1.753063 -0.584694,-2.397678 -2.236551,-2.465756 l -0.986713,-0.04066 -1.390296,0.779237 c -1.793435,1.005193 -3.96369,2.358607 -4.535305,2.828309 -0.534841,0.439483 -0.779147,1.197734 -0.673709,2.090977 0.204026,1.728449 1.39974,2.36236 3.376047,1.789817 z M 94.942945,59.277856 c 1.488578,-0.1234 1.817339,-0.279612 2.272298,-1.079686 0.368783,-0.648531 0.372427,-1.900757 0.0076,-2.615853 -0.491088,-0.962604 -0.602113,-0.984183 -5.063841,-0.984183 -3.565365,0 -3.989181,0.0231 -4.384767,0.238958 -0.936942,0.511264 -1.261495,2.352763 -0.610452,3.463683 0.183167,0.312553 0.46438,0.638925 0.624918,0.725271 0.576646,0.310159 4.699756,0.45528 7.154227,0.25181 z m -61.217583,-0.92107 c 1.088012,-0.114077 1.4848,-0.310068 1.985529,-0.980741 0.223672,-0.299583 0.271253,-0.557441 0.271253,-1.470006 v -1.106693 l -0.561073,-0.561072 -0.561072,-0.561073 h -4.140326 -4.140327 l -0.560142,0.560143 c -0.550155,0.550155 -0.560943,0.578305 -0.605019,1.578741 -0.03939,0.894088 -0.0073,1.073406 0.262194,1.466968 0.470744,0.687358 0.895982,0.932661 1.825117,1.052838 1.120309,0.144904 4.919486,0.157659 6.223866,0.0209 z M 87.554357,44.740153 c 1.41476,-0.694382 4.584072,-2.581592 5.038905,-3.000484 0.438297,-0.403661 0.684032,-1.025909 0.684032,-1.732101 0,-1.161558 -0.559367,-1.93443 -1.630197,-2.252433 -1.241824,-0.368783 -1.477586,-0.305109 -3.735566,1.008872 -2.935689,1.708357 -4.03041,2.447524 -4.299505,2.903065 -0.313129,0.530085 -0.315642,1.863464 -0.0048,2.518625 0.244531,0.515312 0.769275,0.958852 1.354175,1.144614 0.59831,0.190021 1.353578,0.01812 2.592903,-0.590158 z M 39.13292,44.087227 c 0.61434,-0.468581 0.861858,-1.040023 0.861858,-1.989769 0,-0.79192 -0.191304,-1.279944 -0.6782,-1.730117 -0.41022,-0.379281 -3.125458,-2.008966 -4.840571,-2.905308 -1.285386,-0.671762 -1.423327,-0.714846 -2.12598,-0.664021 -1.442922,0.104372 -2.222382,0.960408 -2.222382,2.440713 0,1.358241 0.312159,1.643991 4.3521,3.983903 l 2.291769,1.32738 0.933157,-0.04258 c 0.787569,-0.03594 1.010401,-0.101493 1.428249,-0.420202 z m 37.370248,-9.170922 c 0.289436,-0.07889 0.664364,-0.27097 0.83317,-0.426841 0.396476,-0.366093 2.331604,-3.528195 3.120728,-5.099436 0.575054,-1.145 0.608988,-1.270692 0.562963,-2.085224 -0.08668,-1.533945 -0.769724,-2.110725 -2.499614,-2.110725 h -0.951344 l -0.598732,0.64057 c -0.329303,0.352313 -1.271406,1.785706 -2.093564,3.185318 l -1.494832,2.54475 0.05555,1.161927 c 0.05404,1.130296 0.06856,1.174933 0.533337,1.639712 0.33878,0.338779 0.642691,0.504571 1.044594,0.569853 0.842965,0.136924 0.915951,0.135948 1.487741,-0.0199 z M 49.42766,34.196139 c 0.52102,-0.379813 0.960518,-1.306167 0.960393,-2.024273 -1.19e-4,-0.686239 -0.355948,-1.502758 -1.58655,-3.640648 -1.220003,-2.119477 -2.063672,-3.32061 -2.533663,-3.607186 -0.643053,-0.392098 -1.98525,-0.356985 -2.611129,0.06831 -0.729707,0.495849 -1.031216,1.0806 -1.027809,1.993348 0.0036,0.951664 0.1826,1.361698 1.716659,3.931325 1.359025,2.276437 2.036294,3.214944 2.494574,3.456789 0.506422,0.267252 2.130131,0.155763 2.587525,-0.177665 z m 13.352613,-3.218167 c 0.310615,-0.08627 0.678266,-0.353597 1.019604,-0.741379 l 0.533828,-0.606459 V 25.90771 c 0,-2.30468 -0.05318,-3.863479 -0.139631,-4.092782 -0.481817,-1.277979 -2.159774,-1.863807 -3.491664,-1.21905 -1.046256,0.506484 -1.033993,0.448753 -1.078901,5.079164 l -0.03975,4.098912 0.431991,0.492011 c 0.702884,0.800542 1.607185,1.033445 2.764524,0.712007 z"
     id="path1896" /></svg>
