# Blender v2.93.2 OBJ File: 'myphone.blend'
# www.blender.org
mtllib myphone3.mtl
o Circle.004
v -0.339445 3.312127 -0.756285
v -0.339445 3.340536 -0.753487
v -0.339445 3.367852 -0.745200
v -0.339445 3.393028 -0.731744
v -0.339445 3.415094 -0.713634
v -0.339445 3.433203 -0.691568
v -0.339445 3.446660 -0.666392
v -0.339445 3.454947 -0.639076
v -0.339445 3.457745 -0.610667
v -0.339445 3.454947 -0.582258
v -0.339445 3.446660 -0.554941
v -0.339445 3.433203 -0.529766
v -0.339445 3.415094 -0.507700
v -0.339445 3.393028 -0.489590
v -0.339445 3.367852 -0.476134
v -0.339445 3.340536 -0.467847
v -0.339445 3.312127 -0.465049
v -0.339445 3.283718 -0.467847
v -0.339445 3.256402 -0.476134
v -0.339445 3.231226 -0.489590
v -0.339445 3.209160 -0.507700
v -0.339445 3.191050 -0.529766
v -0.339445 3.177594 -0.554941
v -0.339445 3.169307 -0.582258
v -0.339445 3.166509 -0.610667
v -0.339445 3.169307 -0.639076
v -0.339445 3.177594 -0.666392
v -0.339445 3.191050 -0.691568
v -0.339445 3.209160 -0.713634
v -0.339445 3.231226 -0.731744
v -0.339445 3.256402 -0.745200
v -0.339445 3.283718 -0.753487
v -0.316452 3.074737 -0.054540
v -0.316452 3.882700 -0.054540
v -0.316452 3.074737 -0.862503
v -0.316452 3.882700 -0.862503
v -0.255580 3.074737 -0.054540
v -0.255580 3.882700 -0.054540
v -0.255580 3.074737 -0.862503
v -0.255580 3.882700 -0.862503
v -0.316452 3.882700 -0.862503
v -0.316452 3.074737 -0.862503
v -0.255580 3.074737 -0.862503
v -0.255580 3.882700 -0.862503
v -0.255580 3.074737 -0.054540
v -0.255580 3.882700 -0.054540
v 0.005251 3.906083 -0.099937
v 0.005251 3.914679 -0.099091
v 0.005251 3.922944 -0.096583
v 0.005251 3.930562 -0.092511
v 0.005251 3.937239 -0.087032
v 0.005251 3.942719 -0.080355
v 0.005251 3.946790 -0.072737
v 0.005251 3.949298 -0.064471
v 0.005251 3.950145 -0.055875
v 0.005251 3.949298 -0.047279
v 0.005251 3.946790 -0.039014
v 0.005251 3.942719 -0.031396
v 0.005251 3.937239 -0.024719
v 0.005251 3.930562 -0.019239
v 0.005251 3.922944 -0.015167
v 0.005251 3.914679 -0.012660
v 0.005251 3.906083 -0.011813
v 0.005251 3.897487 -0.012660
v 0.005251 3.889221 -0.015167
v 0.005251 3.881603 -0.019239
v 0.005251 3.874926 -0.024719
v 0.005251 3.869447 -0.031396
v 0.005251 3.865375 -0.039014
v 0.005251 3.862867 -0.047279
v 0.005251 3.862020 -0.055875
v 0.005251 3.862867 -0.064471
v 0.005251 3.865375 -0.072737
v 0.005251 3.869447 -0.080355
v 0.005251 3.874926 -0.087032
v 0.005251 3.881603 -0.092511
v 0.005251 3.889221 -0.096583
v 0.005251 3.897487 -0.099091
v -0.026932 3.272617 -1.052716
v -0.026932 4.121271 -0.536415
v -0.026932 3.353295 -1.052716
v -0.026932 3.433973 -1.052714
v -0.026932 3.514650 -1.052641
v -0.026932 3.595324 -1.051768
v -0.026932 4.008125 -1.045689
v -0.026932 4.082140 -1.013587
v -0.026932 4.114244 -0.939570
v -0.026932 4.120323 -0.859122
v -0.026932 4.121195 -0.778449
v -0.026932 4.121268 -0.697771
v -0.026932 4.121271 -0.617093
v -0.026932 0.150278 -0.536415
v -0.026932 0.666578 -1.052716
v -0.026932 0.150278 -0.617093
v -0.026932 0.150280 -0.697771
v -0.026932 0.150352 -0.778449
v -0.026932 0.151226 -0.859122
v -0.026932 0.157305 -0.939570
v -0.026932 0.189407 -1.013587
v -0.026932 0.263423 -1.045689
v -0.026932 0.343872 -1.051768
v -0.026932 0.424545 -1.052641
v -0.026932 0.505223 -1.052714
v -0.026932 0.585901 -1.052716
v -0.026932 4.121271 0.430983
v -0.026932 3.272617 0.947284
v -0.026932 4.121271 0.511661
v -0.026932 4.121268 0.592339
v -0.026932 4.121195 0.673017
v -0.026932 4.120323 0.753690
v -0.026932 4.114244 0.834138
v -0.026932 4.082140 0.908154
v -0.026932 4.008125 0.940256
v -0.026932 3.595324 0.946336
v -0.026932 3.514650 0.947209
v -0.026932 3.433973 0.947282
v -0.026932 3.353295 0.947284
v -0.026932 0.666578 0.947284
v -0.026932 0.150278 0.430983
v -0.026932 0.585901 0.947284
v -0.026932 0.505223 0.947282
v -0.026932 0.424545 0.947209
v -0.026932 0.343872 0.946336
v -0.026932 0.263423 0.940256
v -0.026932 0.189407 0.908154
v -0.026932 0.157305 0.834138
v -0.026932 0.151226 0.753690
v -0.026932 0.150352 0.673017
v -0.026932 0.150280 0.592339
v -0.026932 0.150278 0.511661
v -0.256057 4.121271 -0.536415
v -0.256057 3.272617 -1.052716
v -0.256057 4.121271 -0.617093
v -0.256057 4.121268 -0.697771
v -0.256057 4.121195 -0.778449
v -0.256057 4.120323 -0.859122
v -0.256057 4.114244 -0.939570
v -0.256057 4.082140 -1.013587
v -0.256057 4.008125 -1.045689
v -0.256057 3.595324 -1.051768
v -0.256057 3.514650 -1.052641
v -0.256057 3.433973 -1.052714
v -0.256057 3.353295 -1.052716
v -0.256057 0.666578 -1.052716
v -0.256057 0.150278 -0.536415
v -0.256057 0.585901 -1.052716
v -0.256057 0.505223 -1.052714
v -0.256057 0.424545 -1.052641
v -0.256057 0.343872 -1.051768
v -0.256057 0.263423 -1.045689
v -0.256057 0.189407 -1.013587
v -0.256057 0.157305 -0.939570
v -0.256057 0.151226 -0.859122
v -0.256057 0.150352 -0.778449
v -0.256057 0.150280 -0.697771
v -0.256057 0.150278 -0.617093
v -0.256057 3.272617 0.947284
v -0.256057 4.121271 0.430983
v -0.256057 3.353295 0.947284
v -0.256057 3.433973 0.947282
v -0.256057 3.514650 0.947209
v -0.256057 3.595324 0.946336
v -0.256057 4.008125 0.940256
v -0.256057 4.082140 0.908154
v -0.256057 4.114244 0.834138
v -0.256057 4.120323 0.753690
v -0.256057 4.121195 0.673017
v -0.256057 4.121268 0.592339
v -0.256057 4.121271 0.511661
v -0.256057 0.150278 0.430983
v -0.256057 0.666578 0.947284
v -0.256057 0.150278 0.511661
v -0.256057 0.150280 0.592339
v -0.256057 0.150352 0.673017
v -0.256057 0.151226 0.753690
v -0.256057 0.157305 0.834138
v -0.256057 0.189407 0.908154
v -0.256057 0.263423 0.940256
v -0.256057 0.343872 0.946336
v -0.256057 0.424545 0.947209
v -0.256057 0.505223 0.947282
v -0.256057 0.585901 0.947284
v -0.339445 3.663578 -0.756285
v -0.339445 3.691987 -0.753487
v -0.339445 3.719304 -0.745200
v -0.339445 3.744479 -0.731744
v -0.339445 3.766545 -0.713634
v -0.339445 3.784655 -0.691568
v -0.339445 3.798111 -0.666392
v -0.339445 3.806398 -0.639076
v -0.339445 3.809196 -0.610667
v -0.339445 3.806398 -0.582258
v -0.339445 3.798111 -0.554941
v -0.339445 3.784655 -0.529766
v -0.339445 3.766545 -0.507700
v -0.339445 3.744479 -0.489590
v -0.339445 3.719304 -0.476134
v -0.339445 3.691987 -0.467847
v -0.339445 3.663578 -0.465049
v -0.339445 3.635170 -0.467847
v -0.339445 3.607853 -0.476134
v -0.339445 3.582677 -0.489590
v -0.339445 3.560611 -0.507700
v -0.339445 3.542501 -0.529766
v -0.339445 3.529045 -0.554941
v -0.339445 3.520759 -0.582258
v -0.339445 3.517961 -0.610667
v -0.339445 3.520759 -0.639076
v -0.339445 3.529045 -0.666392
v -0.339445 3.542501 -0.691568
v -0.339445 3.560611 -0.713634
v -0.339445 3.582677 -0.731744
v -0.339445 3.607853 -0.745200
v -0.339445 3.635170 -0.753487
v -0.339445 3.477363 -0.427940
v -0.339445 3.505771 -0.425142
v -0.339445 3.533088 -0.416856
v -0.339445 3.558264 -0.403399
v -0.339445 3.580330 -0.385290
v -0.339445 3.598439 -0.363223
v -0.339445 3.611896 -0.338048
v -0.339445 3.620182 -0.310731
v -0.339445 3.622980 -0.282323
v -0.339445 3.620182 -0.253914
v -0.339445 3.611896 -0.226597
v -0.339445 3.598439 -0.201422
v -0.339445 3.580330 -0.179355
v -0.339445 3.558264 -0.161246
v -0.339445 3.533088 -0.147789
v -0.339445 3.505771 -0.139503
v -0.339445 3.477363 -0.136705
v -0.339445 3.448954 -0.139503
v -0.339445 3.421637 -0.147789
v -0.339445 3.396462 -0.161246
v -0.339445 3.374395 -0.179355
v -0.339445 3.356286 -0.201422
v -0.339445 3.342830 -0.226597
v -0.339445 3.334543 -0.253914
v -0.339445 3.331745 -0.282323
v -0.339445 3.334543 -0.310731
v -0.339445 3.342830 -0.338048
v -0.339445 3.356286 -0.363223
v -0.339445 3.374395 -0.385290
v -0.339445 3.396462 -0.403399
v -0.339445 3.421637 -0.416856
v -0.339445 3.448954 -0.425142
v 0.000000 3.906494 -0.102752
v 0.000000 3.916248 -0.101792
v 0.000000 3.925628 -0.098946
v 0.000000 3.934272 -0.094326
v 0.000000 3.941849 -0.088108
v 0.000000 3.948067 -0.080531
v 0.000000 3.952688 -0.071887
v 0.000000 3.955533 -0.062507
v 0.000000 3.956494 -0.052752
v 0.000000 3.955533 -0.042998
v 0.000000 3.952688 -0.033618
v 0.000000 3.948067 -0.024974
v 0.000000 3.941849 -0.017397
v 0.000000 3.934272 -0.011179
v 0.000000 3.925628 -0.006558
v 0.000000 3.916248 -0.003713
v 0.000000 3.906494 -0.002752
v 0.000000 3.896739 -0.003713
v 0.000000 3.887360 -0.006558
v 0.000000 3.878715 -0.011179
v 0.000000 3.871138 -0.017397
v 0.000000 3.864920 -0.024974
v 0.000000 3.860300 -0.033618
v 0.000000 3.857454 -0.042998
v 0.000000 3.856493 -0.052752
v 0.000000 3.857454 -0.062507
v 0.000000 3.860300 -0.071887
v 0.000000 3.864920 -0.080531
v 0.000000 3.871138 -0.088108
v 0.000000 3.878715 -0.094326
v 0.000000 3.887360 -0.098946
v 0.000000 3.896739 -0.101792
vt 0.000000 0.000000
vt 0.000000 0.000000
vt 0.000000 0.000000
vt 0.000000 0.000000
vt 0.000000 0.000000
vt 0.000000 0.000000
vt 0.000000 0.000000
vt 0.000000 0.000000
vt 0.000000 0.000000
vt 0.000000 0.000000
vt 0.000000 0.000000
vt 0.000000 0.000000
vt 0.000000 0.000000
vt 0.000000 0.000000
vt 0.000000 0.000000
vt 0.000000 0.000000
vt 0.000000 0.000000
vt 0.000000 0.000000
vt 0.000000 0.000000
vt 0.000000 0.000000
vt 0.000000 0.000000
vt 0.000000 0.000000
vt 0.000000 0.000000
vt 0.000000 0.000000
vt 0.000000 0.000000
vt 0.000000 0.000000
vt 0.000000 0.000000
vt 0.000000 0.000000
vt 0.000000 0.000000
vt 0.000000 0.000000
vt 0.000000 0.000000
vt 0.000000 0.000000
vt 0.375000 0.000000
vt 0.625000 0.000000
vt 0.625000 0.250000
vt 0.375000 0.250000
vt 0.375000 0.250000
vt 0.625000 0.250000
vt 0.625000 0.500000
vt 0.375000 0.500000
vt 0.625000 0.750000
vt 0.375000 0.750000
vt 0.375000 0.750000
vt 0.625000 0.750000
vt 0.625000 1.000000
vt 0.375000 1.000000
vt 0.125000 0.500000
vt 0.375000 0.500000
vt 0.125000 0.750000
vt 0.625000 0.500000
vt 0.875000 0.500000
vt 0.875000 0.750000
vt 0.125000 0.500000
vt 0.875000 0.500000
vt 0.000000 0.000000
vt 0.000000 0.000000
vt 0.000000 0.000000
vt 0.000000 0.000000
vt 0.000000 0.000000
vt 0.000000 0.000000
vt 0.000000 0.000000
vt 0.000000 0.000000
vt 0.000000 0.000000
vt 0.000000 0.000000
vt 0.000000 0.000000
vt 0.000000 0.000000
vt 0.000000 0.000000
vt 0.000000 0.000000
vt 0.000000 0.000000
vt 0.000000 0.000000
vt 0.000000 0.000000
vt 0.000000 0.000000
vt 0.000000 0.000000
vt 0.000000 0.000000
vt 0.000000 0.000000
vt 0.000000 0.000000
vt 0.000000 0.000000
vt 0.000000 0.000000
vt 0.000000 0.000000
vt 0.000000 0.000000
vt 0.000000 0.000000
vt 0.000000 0.000000
vt 0.000000 0.000000
vt 0.000000 0.000000
vt 0.000000 0.000000
vt 0.000000 0.000000
vt 0.125000 0.564538
vt 0.375000 0.564538
vt 0.375000 0.685462
vt 0.125000 0.685462
vt 0.375000 0.064538
vt 0.375000 0.054453
vt 0.375000 0.044368
vt 0.375005 0.034283
vt 0.375065 0.024199
vt 0.375483 0.014143
vt 0.377688 0.004891
vt 0.382774 0.000878
vt 0.388301 0.000119
vt 0.393844 0.000009
vt 0.399387 0.000000
vt 0.404930 0.000000
vt 0.410473 0.000000
vt 0.589526 0.000000
vt 0.595070 0.000000
vt 0.600613 0.000000
vt 0.606156 0.000009
vt 0.611699 0.000119
vt 0.617226 0.000878
vt 0.622311 0.004891
vt 0.624517 0.014143
vt 0.624935 0.024199
vt 0.624995 0.034283
vt 0.625000 0.044368
vt 0.625000 0.054453
vt 0.625000 0.064538
vt 0.625000 0.185462
vt 0.625000 0.195547
vt 0.625000 0.205632
vt 0.624995 0.215717
vt 0.624935 0.225801
vt 0.624517 0.235857
vt 0.622311 0.245109
vt 0.617226 0.249122
vt 0.611699 0.249881
vt 0.606156 0.249991
vt 0.600613 0.250000
vt 0.595070 0.250000
vt 0.589526 0.250000
vt 0.410473 0.250000
vt 0.404930 0.250000
vt 0.399387 0.250000
vt 0.393844 0.249991
vt 0.388301 0.249882
vt 0.382774 0.249122
vt 0.377688 0.245109
vt 0.375483 0.235857
vt 0.375065 0.225801
vt 0.375005 0.215717
vt 0.375000 0.205632
vt 0.375000 0.195547
vt 0.375000 0.185462
vt 0.410473 0.750000
vt 0.589526 0.750000
vt 0.589527 1.000000
vt 0.410473 1.000000
vt 0.625000 0.564538
vt 0.875000 0.564538
vt 0.875000 0.685462
vt 0.625000 0.685462
vt 0.375000 0.554453
vt 0.375000 0.544368
vt 0.375005 0.534283
vt 0.375065 0.524199
vt 0.375483 0.514143
vt 0.377688 0.504891
vt 0.382774 0.500878
vt 0.388301 0.500119
vt 0.393844 0.500009
vt 0.399387 0.500000
vt 0.404930 0.500000
vt 0.410473 0.500000
vt 0.589526 0.500000
vt 0.595070 0.500000
vt 0.600613 0.500000
vt 0.606156 0.500009
vt 0.611699 0.500118
vt 0.617226 0.500878
vt 0.622311 0.504891
vt 0.624517 0.514143
vt 0.624935 0.524199
vt 0.624995 0.534283
vt 0.625000 0.544368
vt 0.625000 0.554453
vt 0.625000 0.695547
vt 0.625000 0.705632
vt 0.624995 0.715717
vt 0.624935 0.725801
vt 0.624517 0.735857
vt 0.622311 0.745109
vt 0.617226 0.749122
vt 0.611699 0.749881
vt 0.606156 0.749991
vt 0.600613 0.750000
vt 0.595070 0.750000
vt 0.404930 0.750000
vt 0.399387 0.750000
vt 0.393844 0.749991
vt 0.388301 0.749882
vt 0.382774 0.749121
vt 0.377688 0.745109
vt 0.375483 0.735857
vt 0.375065 0.725801
vt 0.375005 0.715717
vt 0.375000 0.705632
vt 0.375000 0.695547
vt 0.125000 0.554453
vt 0.125000 0.544368
vt 0.125000 0.534283
vt 0.125000 0.524199
vt 0.375000 0.524199
vt 0.125000 0.514143
vt 0.375000 0.514143
vt 0.125000 0.500000
vt 0.375000 0.500000
vt 0.375000 0.250000
vt 0.382774 0.250000
vt 0.382774 0.500000
vt 0.388301 0.250000
vt 0.388301 0.500000
vt 0.875000 0.695547
vt 0.875000 0.705632
vt 0.875000 0.715717
vt 0.875000 0.725801
vt 0.625000 0.725801
vt 0.875000 0.735857
vt 0.625000 0.735857
vt 0.875000 0.750000
vt 0.625000 0.750000
vt 0.625000 1.000000
vt 0.617226 1.000000
vt 0.617226 0.750000
vt 0.611699 1.000000
vt 0.611699 0.750000
vt 0.606156 1.000000
vt 0.600613 1.000000
vt 0.595070 1.000000
vt 0.125000 0.695547
vt 0.125000 0.705632
vt 0.125000 0.715717
vt 0.375000 0.725801
vt 0.125000 0.725801
vt 0.375000 0.735857
vt 0.125000 0.735857
vt 0.375000 0.750000
vt 0.125000 0.750000
vt 0.375000 1.000000
vt 0.382774 0.750000
vt 0.382774 1.000000
vt 0.388301 0.750000
vt 0.388301 1.000000
vt 0.393844 1.000000
vt 0.399387 1.000000
vt 0.404930 1.000000
vt 0.875000 0.554453
vt 0.875000 0.544368
vt 0.875000 0.534283
vt 0.625000 0.524199
vt 0.875000 0.524199
vt 0.625000 0.514143
vt 0.875000 0.514143
vt 0.625000 0.500000
vt 0.875000 0.500000
vt 0.625000 0.250000
vt 0.617226 0.500000
vt 0.617226 0.250000
vt 0.611699 0.500000
vt 0.611699 0.250000
vt 0.000000 0.000000
vt 0.000000 0.000000
vt 0.000000 0.000000
vt 0.000000 0.000000
vt 0.000000 0.000000
vt 0.000000 0.000000
vt 0.000000 0.000000
vt 0.000000 0.000000
vt 0.000000 0.000000
vt 0.000000 0.000000
vt 0.000000 0.000000
vt 0.000000 0.000000
vt 0.000000 0.000000
vt 0.000000 0.000000
vt 0.000000 0.000000
vt 0.000000 0.000000
vt 0.000000 0.000000
vt 0.000000 0.000000
vt 0.000000 0.000000
vt 0.000000 0.000000
vt 0.000000 0.000000
vt 0.000000 0.000000
vt 0.000000 0.000000
vt 0.000000 0.000000
vt 0.000000 0.000000
vt 0.000000 0.000000
vt 0.000000 0.000000
vt 0.000000 0.000000
vt 0.000000 0.000000
vt 0.000000 0.000000
vt 0.000000 0.000000
vt 0.000000 0.000000
vt 0.000000 0.000000
vt 0.000000 0.000000
vt 0.000000 0.000000
vt 0.000000 0.000000
vt 0.000000 0.000000
vt 0.000000 0.000000
vt 0.000000 0.000000
vt 0.000000 0.000000
vt 0.000000 0.000000
vt 0.000000 0.000000
vt 0.000000 0.000000
vt 0.000000 0.000000
vt 0.000000 0.000000
vt 0.000000 0.000000
vt 0.000000 0.000000
vt 0.000000 0.000000
vt 0.000000 0.000000
vt 0.000000 0.000000
vt 0.000000 0.000000
vt 0.000000 0.000000
vt 0.000000 0.000000
vt 0.000000 0.000000
vt 0.000000 0.000000
vt 0.000000 0.000000
vt 0.000000 0.000000
vt 0.000000 0.000000
vt 0.000000 0.000000
vt 0.000000 0.000000
vt 0.000000 0.000000
vt 0.000000 0.000000
vt 0.000000 0.000000
vt 0.000000 0.000000
vt 0.000000 0.000000
vt 0.000000 0.000000
vt 0.000000 0.000000
vt 0.000000 0.000000
vt 0.000000 0.000000
vt 0.000000 0.000000
vt 0.000000 0.000000
vt 0.000000 0.000000
vt 0.000000 0.000000
vt 0.000000 0.000000
vt 0.000000 0.000000
vt 0.000000 0.000000
vt 0.000000 0.000000
vt 0.000000 0.000000
vt 0.000000 0.000000
vt 0.000000 0.000000
vt 0.000000 0.000000
vt 0.000000 0.000000
vt 0.000000 0.000000
vt 0.000000 0.000000
vt 0.000000 0.000000
vt 0.000000 0.000000
vt 0.000000 0.000000
vt 0.000000 0.000000
vt 0.000000 0.000000
vt 0.000000 0.000000
vt 0.000000 0.000000
vt 0.000000 0.000000
vt 0.000000 0.000000
vt 0.000000 0.000000
vt 0.000000 0.000000
vt 0.000000 0.000000
vn 1.0000 -0.0000 0.0000
vn -1.0000 0.0000 0.0000
vn 0.0000 0.0000 -1.0000
vn 0.0000 0.0000 1.0000
vn 0.0000 -1.0000 0.0000
vn 0.0000 1.0000 0.0000
vn 0.0000 -1.0000 -0.0009
vn 0.0000 -0.9999 -0.0108
vn 0.0000 -0.9972 -0.0754
vn 0.0000 -0.9174 -0.3979
vn 0.0000 -0.3979 -0.9174
vn 0.0000 -0.0754 -0.9972
vn 0.0000 -0.0108 -0.9999
vn 0.0000 -0.0009 -1.0000
vn 0.0000 1.0000 0.0009
vn 0.0000 0.9999 0.0108
vn 0.0000 0.9972 0.0754
vn 0.0000 0.9174 0.3979
vn 0.0000 0.3979 0.9174
vn 0.0000 0.0147 0.9999
vn 0.0000 0.0108 0.9999
vn 0.0000 0.0009 1.0000
vn 0.0000 -1.0000 0.0009
vn 0.0000 -0.9999 0.0108
vn 0.0000 -0.9972 0.0754
vn 0.0000 -0.9174 0.3979
vn 0.0000 -0.3979 0.9174
vn 0.0000 -0.0754 0.9972
vn 0.0000 -0.0108 0.9999
vn 0.0000 -0.0009 1.0000
vn 0.0000 1.0000 -0.0009
vn 0.0000 0.9999 -0.0108
vn 0.0000 0.9972 -0.0754
vn 0.0000 0.9174 -0.3979
vn 0.0000 0.3979 -0.9174
vn 0.0000 0.0147 -0.9999
vn 0.0000 0.0108 -0.9999
vn 0.0000 0.0009 -1.0000
usemtl Material.006
s off
f 2/1/1 3/2/1 4/3/1 5/4/1 6/5/1 7/6/1 8/7/1 9/8/1 10/9/1 11/10/1 12/11/1 13/12/1 14/13/1 15/14/1 16/15/1 17/16/1 18/17/1 19/18/1 20/19/1 21/20/1 22/21/1 23/22/1 24/23/1 25/24/1 26/25/1 27/26/1 28/27/1 29/28/1 30/29/1 31/30/1 32/31/1 1/32/1
usemtl Material.002
f 33/33/2 34/34/2 41/35/2 42/36/2
f 35/37/3 36/38/3 44/39/3 43/40/3
f 43/40/1 44/39/1 46/41/1 45/42/1
f 37/43/4 38/44/4 34/45/4 33/46/4
f 42/47/5 39/48/5 37/43/5 33/49/5
f 40/50/6 41/51/6 34/52/6 38/44/6
f 42/36/4 41/35/4 36/38/4 35/37/4
f 39/48/4 42/47/4 35/53/4 43/40/4
f 41/51/4 40/50/4 44/39/4 36/54/4
f 37/43/4 39/48/4 43/40/4 45/42/4
f 40/50/4 38/44/4 46/41/4 44/39/4
f 38/44/4 37/43/4 45/42/4 46/41/4
usemtl Material.003
f 48/55/1 49/56/1 50/57/1 51/58/1 52/59/1 53/60/1 54/61/1 55/62/1 56/63/1 57/64/1 58/65/1 59/66/1 60/67/1 61/68/1 62/69/1 63/70/1 64/71/1 65/72/1 66/73/1 67/74/1 68/75/1 69/76/1 70/77/1 71/78/1 72/79/1 73/80/1 74/81/1 75/82/1 76/83/1 77/84/1 78/85/1 47/86/1
usemtl Material
f 145/87/5 92/88/5 119/89/5 170/90/5
f 170/91/2 172/92/2 173/93/2 174/94/2 175/95/2 176/96/2 177/97/2 178/98/2 179/99/2 180/100/2 181/101/2 182/102/2 171/103/2 157/104/2 159/105/2 160/106/2 161/107/2 162/108/2 163/109/2 164/110/2 165/111/2 166/112/2 167/113/2 168/114/2 169/115/2 158/116/2 131/117/2 133/118/2 134/119/2 135/120/2 136/121/2 137/122/2 138/123/2 139/124/2 140/125/2 141/126/2 142/127/2 143/128/2 132/129/2 144/130/2 146/131/2 147/132/2 148/133/2 149/134/2 150/135/2 151/136/2 152/137/2 153/138/2 154/139/2 155/140/2 156/141/2 145/142/2
f 118/143/4 106/144/4 157/145/4 171/146/4
f 80/147/6 131/148/6 158/149/6 105/150/6
f 92/88/1 94/151/1 95/152/1 96/153/1 97/154/1 98/155/1 99/156/1 100/157/1 101/158/1 102/159/1 103/160/1 104/161/1 93/162/1 79/163/1 81/164/1 82/165/1 83/166/1 84/167/1 85/168/1 86/169/1 87/170/1 88/171/1 89/172/1 90/173/1 91/174/1 80/147/1 105/150/1 107/175/1 108/176/1 109/177/1 110/178/1 111/179/1 112/180/1 113/181/1 114/182/1 115/183/1 116/184/1 117/185/1 106/144/1 118/143/1 120/186/1 121/187/1 122/188/1 123/189/1 124/190/1 125/191/1 126/192/1 127/193/1 128/194/1 129/195/1 130/196/1 119/89/1
f 92/88/5 145/87/5 156/197/5 94/151/5
f 94/151/5 156/197/5 155/198/5 95/152/5
f 95/152/7 155/198/7 154/199/7 96/153/7
f 96/153/8 154/199/8 153/200/8 97/201/8
f 97/201/9 153/200/9 152/202/9 98/203/9
f 98/203/10 152/202/10 151/204/10 99/205/10
f 99/205/11 151/206/11 150/207/11 100/208/11
f 100/208/12 150/207/12 149/209/12 101/210/12
f 101/210/13 149/209/13 148/133/13 102/159/13
f 102/159/14 148/133/14 147/132/14 103/160/14
f 103/160/3 147/132/3 146/131/3 104/161/3
f 104/161/3 146/131/3 144/130/3 93/162/3
f 105/150/6 158/149/6 169/211/6 107/175/6
f 107/175/6 169/211/6 168/212/6 108/176/6
f 108/176/15 168/212/15 167/213/15 109/177/15
f 109/177/16 167/213/16 166/214/16 110/215/16
f 110/215/17 166/214/17 165/216/17 111/217/17
f 111/217/18 165/216/18 164/218/18 112/219/18
f 112/219/19 164/220/19 163/221/19 113/222/19
f 113/222/20 163/221/20 162/223/20 114/224/20
f 114/224/21 162/223/21 161/225/21 115/183/21
f 115/183/22 161/225/22 160/226/22 116/184/22
f 116/184/4 160/226/4 159/227/4 117/185/4
f 117/185/4 159/227/4 157/145/4 106/144/4
f 170/90/5 119/89/5 130/196/5 172/228/5
f 172/228/5 130/196/5 129/195/5 173/229/5
f 173/229/23 129/195/23 128/194/23 174/230/23
f 174/230/24 128/194/24 127/231/24 175/232/24
f 175/232/25 127/231/25 126/233/25 176/234/25
f 176/234/26 126/233/26 125/235/26 177/236/26
f 177/237/27 125/235/27 124/238/27 178/239/27
f 178/239/28 124/238/28 123/240/28 179/241/28
f 179/241/29 123/240/29 122/188/29 180/242/29
f 180/242/30 122/188/30 121/187/30 181/243/30
f 181/243/4 121/187/4 120/186/4 182/244/4
f 182/244/4 120/186/4 118/143/4 171/146/4
f 131/148/6 80/147/6 91/174/6 133/245/6
f 133/245/6 91/174/6 90/173/6 134/246/6
f 134/246/31 90/173/31 89/172/31 135/247/31
f 135/247/32 89/172/32 88/248/32 136/249/32
f 136/249/33 88/248/33 87/250/33 137/251/33
f 137/251/34 87/250/34 86/252/34 138/253/34
f 138/254/35 86/252/35 85/255/35 139/256/35
f 139/256/36 85/255/36 84/257/36 140/258/36
f 140/258/37 84/257/37 83/166/37 141/126/37
f 141/126/38 83/166/38 82/165/38 142/127/38
f 142/127/3 82/165/3 81/164/3 143/128/3
f 143/128/3 81/164/3 79/163/3 132/129/3
f 144/130/3 132/129/3 79/163/3 93/162/3
usemtl Material.004
f 184/259/1 185/260/1 186/261/1 187/262/1 188/263/1 189/264/1 190/265/1 191/266/1 192/267/1 193/268/1 194/269/1 195/270/1 196/271/1 197/272/1 198/273/1 199/274/1 200/275/1 201/276/1 202/277/1 203/278/1 204/279/1 205/280/1 206/281/1 207/282/1 208/283/1 209/284/1 210/285/1 211/286/1 212/287/1 213/288/1 214/289/1 183/290/1
usemtl Material.005
f 216/291/1 217/292/1 218/293/1 219/294/1 220/295/1 221/296/1 222/297/1 223/298/1 224/299/1 225/300/1 226/301/1 227/302/1 228/303/1 229/304/1 230/305/1 231/306/1 232/307/1 233/308/1 234/309/1 235/310/1 236/311/1 237/312/1 238/313/1 239/314/1 240/315/1 241/316/1 242/317/1 243/318/1 244/319/1 245/320/1 246/321/1 215/322/1
usemtl Material.001
f 248/323/1 249/324/1 250/325/1 251/326/1 252/327/1 253/328/1 254/329/1 255/330/1 256/331/1 257/332/1 258/333/1 259/334/1 260/335/1 261/336/1 262/337/1 263/338/1 264/339/1 265/340/1 266/341/1 267/342/1 268/343/1 269/344/1 270/345/1 271/346/1 272/347/1 273/348/1 274/349/1 275/350/1 276/351/1 277/352/1 278/353/1 247/354/1
